<svg width="16" height="10" viewBox="0 0 16 10" fill="none" xmlns="http://www.w3.org/2000/svg">
<path fill-rule="evenodd" clip-rule="evenodd" d="M6.70495 4.54414C7.08636 4.37638 7.41778 4.10288 7.66417 3.75256C7.89065 3.38052 8.00317 2.94382 7.98641 2.50186C8.0011 2.09881 7.92669 1.69769 7.76908 1.33031C7.63668 1.01203 7.42413 0.738224 7.15458 0.538724C6.86881 0.331308 6.54429 0.190952 6.20286 0.1271C5.7988 0.0375825 5.38668 -0.00488877 4.97386 0.000446736H0.714286C0.595939 0.000446736 0.5 0.0963857 0.5 0.214732V9.7443C0.5 9.86265 0.595939 9.95859 0.714286 9.95859H5.07128C5.48846 9.9589 5.90397 9.90304 6.30777 9.79235C6.69052 9.68776 7.05313 9.51366 7.3794 9.27782C7.69545 9.04645 7.9528 8.73656 8.12879 8.37542C8.32356 7.97154 8.41892 7.52236 8.40607 7.0693C8.42026 6.50786 8.27118 5.95531 7.97891 5.48613C7.66461 5.01429 7.19844 4.67944 6.66748 4.54414H6.70495ZM2.67855 1.60714C2.59966 1.60714 2.5357 1.6711 2.5357 1.75V3.96429C2.5357 4.04318 2.59966 4.10714 2.67855 4.10714H4.67855C5.36891 4.10714 5.92855 3.5475 5.92855 2.85714C5.92855 2.16679 5.36891 1.60714 4.67855 1.60714H2.67855ZM2.5357 5.5C2.5357 5.4211 2.59966 5.35714 2.67855 5.35714H4.76784C5.60613 5.35714 6.2857 6.03671 6.2857 6.875C6.2857 7.71329 5.60613 8.39286 4.76784 8.39286H2.67855C2.59966 8.39286 2.5357 8.3289 2.5357 8.25V5.5Z" fill="black"/>
<path d="M10.4564 0.507061H13.8301C13.9473 0.507061 14.0427 0.601255 14.0443 0.718469L14.0536 1.40603C14.0552 1.52549 13.9588 1.6232 13.8393 1.6232H10.4564C10.338 1.6232 10.2421 1.52726 10.2421 1.40891V0.721347C10.2421 0.603 10.338 0.507061 10.4564 0.507061Z" fill="black"/>
<path fill-rule="evenodd" clip-rule="evenodd" d="M12.2654 8.47832C12.611 8.4895 12.9514 8.38717 13.2396 8.18544C13.4252 8.06185 13.5731 7.88535 13.6667 7.67726C13.6914 7.62217 13.7446 7.58383 13.805 7.58383H15.1771C15.2702 7.58383 15.3384 7.67142 15.311 7.76032C15.1018 8.43824 14.6916 9.02916 14.1389 9.44405C13.5447 9.8285 12.857 10.0211 12.1605 9.99816C11.6641 10.0071 11.1706 9.91575 10.7067 9.72903C10.2906 9.55476 9.91676 9.28428 9.61258 8.93744C9.31858 8.58417 9.09437 8.1724 8.95312 7.72632C8.78683 7.23371 8.7056 6.71357 8.71332 6.19064C8.70874 5.67503 8.79253 5.16281 8.96061 4.67871C9.11725 4.23029 9.35958 3.82073 9.67253 3.47551C9.98637 3.13705 10.3609 2.86796 10.7741 2.68392C11.2255 2.48684 11.7096 2.38726 12.198 2.39103C12.7172 2.38256 13.231 2.50466 13.6968 2.74725C14.1154 2.97753 14.4792 3.305 14.7609 3.70506C15.0407 4.1175 15.2442 4.58216 15.3604 5.07451C15.4806 5.59202 15.5236 6.12617 15.4878 6.65768H10.5268C10.5049 7.16813 10.6715 7.66764 10.9915 8.05087C11.1645 8.21089 11.367 8.33145 11.5862 8.405C11.8054 8.47855 12.0367 8.50351 12.2654 8.47832ZM10.5714 5.28486C10.5714 5.32478 10.6038 5.35714 10.6437 5.35714H13.5348C13.5748 5.35714 13.6071 5.32478 13.6071 5.28486C13.6071 4.48649 12.9599 3.83929 12.1615 3.83929H12.017C11.2186 3.83929 10.5714 4.48649 10.5714 5.28486Z" fill="black"/>
</svg>
