<svg width="16" height="13" viewBox="0 0 16 13" fill="none" xmlns="http://www.w3.org/2000/svg">
<path d="M4.48036 0.870498C7.0457 0.647497 9.62556 0.647497 12.1909 0.870497L13.4269 0.977937C14.2496 1.04946 14.9543 1.54022 15.3194 2.24221C15.3662 2.33202 15.3311 2.44075 15.2451 2.49403L10.1171 5.66849C9.0173 6.34932 7.63053 6.36361 6.51694 5.70558L1.3547 2.65516C1.2713 2.60588 1.23302 2.50443 1.2706 2.41515C1.60463 1.62167 2.35561 1.0552 3.2444 0.977937L4.48036 0.870498Z" fill="black"/>
<path d="M1.2664 4.02887C1.13876 3.95345 0.975902 4.03461 0.961024 4.18212C0.753371 6.24088 0.803629 8.31913 1.1118 10.3685C1.27426 11.4488 2.15599 12.2771 3.2444 12.3717L4.48036 12.4791C7.0457 12.7021 9.62556 12.7021 12.1909 12.4791L13.4269 12.3717C14.5153 12.2771 15.397 11.4488 15.5595 10.3685C15.8766 8.25941 15.9206 6.11973 15.6914 4.00219C15.6754 3.85363 15.5097 3.77397 15.3827 3.85261L10.7632 6.71226C9.27528 7.63338 7.39906 7.65271 5.89243 6.76243L1.2664 4.02887Z" fill="black"/>
</svg>
