<svg width="16" height="18" viewBox="0 0 16 18" fill="none" xmlns="http://www.w3.org/2000/svg">
<path d="M10.6089 1.35913C9.04677 0.99621 7.42216 0.996215 5.86007 1.35915C4.95784 0.80534 4.26843 0.551211 3.76736 0.444132C3.49495 0.385916 3.27903 0.371375 3.11662 0.375714C3.03557 0.377879 2.9685 0.384732 2.91506 0.392953C2.88838 0.397059 2.86519 0.401492 2.84545 0.405819C2.83559 0.407982 2.8266 0.410116 2.81848 0.412167L2.80695 0.415172L2.80168 0.416613L2.79916 0.417316L2.79673 0.418006C2.79672 0.418009 2.79674 0.418003 2.79673 0.418006C2.79619 0.418259 2.79888 0.425509 2.9723 1.03192L2.79673 0.418006C2.6152 0.469923 2.46591 0.599454 2.38892 0.771855C2.17399 1.25313 2.0566 1.77224 2.04353 2.29917C2.03383 2.69074 2.08188 3.08086 2.18551 3.45708C1.91315 3.787 1.69121 4.15644 1.52769 4.55341C1.31305 5.07446 1.20326 5.63273 1.2046 6.19626C1.20476 8.18068 1.79021 9.51492 2.78791 10.3722C3.48695 10.9729 4.33674 11.2925 5.18761 11.4755C5.04711 11.866 5.01065 12.2789 5.03909 12.6998V13.4645C4.51843 13.5739 4.1589 13.5393 3.9026 13.4547C3.58052 13.3484 3.3336 13.1346 3.09807 12.8276C2.97879 12.6721 2.86889 12.5013 2.75349 12.3145L2.68023 12.1952C2.58985 12.0476 2.49232 11.8884 2.39389 11.7432C2.15 11.3836 1.79019 10.9341 1.20711 10.781L0.588978 10.6187L0.264404 11.855L0.882538 12.0173C0.984081 12.044 1.11775 12.1387 1.336 12.4606C1.4162 12.5788 1.49269 12.7037 1.58003 12.8462C1.60747 12.891 1.63604 12.9376 1.66607 12.9862C1.78603 13.1804 1.92362 13.3966 2.08394 13.6055C2.40761 14.0275 2.8483 14.4527 3.50202 14.6685C3.95117 14.8167 4.45886 14.8523 5.03909 14.7631V17.1509C5.03909 17.5039 5.32521 17.79 5.67817 17.79H10.7908C11.1438 17.79 11.4299 17.5039 11.4299 17.1509V12.5974C11.4299 12.1938 11.4123 11.8248 11.2987 11.4805C12.1453 11.3018 12.9884 10.9819 13.6828 10.3807C14.6802 9.51737 15.2644 8.1711 15.2644 6.17467L15.2644 6.17261C15.2612 5.17721 14.9119 4.2184 14.2835 3.4571C14.3871 3.08087 14.4352 2.69075 14.4255 2.29917C14.4124 1.77224 14.295 1.25313 14.0801 0.771855C14.0031 0.599403 13.8537 0.469848 13.6721 0.417962L13.4965 1.03245C13.6721 0.417962 13.6703 0.417445 13.6697 0.417273L13.6672 0.416572L13.6619 0.415133L13.6504 0.412133C13.6423 0.410086 13.6333 0.407955 13.6234 0.405795C13.6037 0.401473 13.5805 0.397044 13.5538 0.392942C13.5004 0.384727 13.4333 0.377878 13.3523 0.375714C13.1898 0.371376 12.9738 0.385911 12.7014 0.444126C12.2002 0.551201 11.5108 0.805329 10.6089 1.35913Z" fill="black"/>
</svg>
