<svg width="25" height="25" viewBox="0 0 25 25" fill="none" xmlns="http://www.w3.org/2000/svg">
<circle cx="12.5" cy="12.5" r="12" stroke="black"/>
<path d="M10.8241 20.5006C11.0824 20.4028 11.2125 20.1142 11.1147 19.8559C11.0169 19.5977 10.7282 19.4676 10.47 19.5654L10.8241 20.5006ZM6.81718 16.9159L6.34036 16.7654L6.03936 17.7191L6.51617 17.8696L6.81718 16.9159ZM14.5392 23.3333V23.8333H15.5392V23.3333H14.5392ZM14.5588 16.9802L14.4947 16.4843C14.3136 16.5077 14.1596 16.6281 14.0931 16.7982C14.0266 16.9683 14.0582 17.1612 14.1755 17.3012L14.5588 16.9802ZM18.3333 11.9967L18.8333 11.9967L18.8333 11.9954L18.3333 11.9967ZM17.4185 9.34819L16.9427 9.19449C16.8902 9.3573 16.9245 9.53569 17.0337 9.66738L17.4185 9.34819ZM17.3636 6.68565L17.8323 6.51154C17.7802 6.37109 17.6678 6.26144 17.5261 6.21277L17.3636 6.68565ZM14.9781 7.73103L14.8286 8.20815C14.985 8.25714 15.1554 8.22643 15.2848 8.12594L14.9781 7.73103ZM10.7081 7.73103L10.4015 8.126C10.5309 8.22644 10.7013 8.25713 10.8577 8.20815L10.7081 7.73103ZM8.32265 6.68565L8.16008 6.21282C8.01844 6.26152 7.9061 6.37114 7.85394 6.51154L8.32265 6.68565ZM8.26775 9.34819L8.65258 9.66742C8.76182 9.53572 8.79614 9.35731 8.74354 9.19449L8.26775 9.34819ZM7.35295 12.0182L7.85295 12.0182L7.85295 12.0171L7.35295 12.0182ZM11.1275 16.9802L11.5113 17.3006C11.6274 17.1614 11.6592 16.9704 11.5943 16.8012C11.5294 16.632 11.378 16.5111 11.1987 16.4853L11.1275 16.9802ZM10.6471 18.7129H11.1471C11.1471 18.7027 11.1468 18.6925 11.1461 18.6824L10.6471 18.7129ZM10.1471 23.3333V23.8333H11.1471V23.3333H10.1471ZM10.47 19.5654C9.81146 19.8148 9.403 19.7845 9.13405 19.6778C8.85611 19.5676 8.63207 19.3388 8.41646 19.0009C8.30954 18.8333 8.21198 18.6507 8.11218 18.4565C8.01605 18.2694 7.91233 18.0602 7.80672 17.8729C7.60899 17.5223 7.31513 17.0731 6.81718 16.9159L6.51617 17.8696C6.60635 17.898 6.73644 18.0109 6.93571 18.3642C7.02861 18.5289 7.11666 18.7071 7.22272 18.9135C7.32512 19.1128 7.44017 19.3299 7.57345 19.5388C7.83824 19.9537 8.20491 20.385 8.76525 20.6073C9.33459 20.8332 10.012 20.8082 10.8241 20.5006L10.47 19.5654ZM15.5392 18.6304C15.5392 18.2143 15.5233 17.8652 15.435 17.5465C15.3417 17.2097 15.1782 16.941 14.9422 16.6592L14.1755 17.3012C14.3506 17.5103 14.4272 17.6541 14.4713 17.8135C14.5205 17.9908 14.5392 18.2213 14.5392 18.6304H15.5392ZM14.6229 17.4761C15.6257 17.3465 16.7047 17.0418 17.5249 16.1882C18.3498 15.3297 18.8333 14.0006 18.8333 11.9967H17.8333C17.8333 13.8492 17.3873 14.8881 16.8038 15.4954C16.2156 16.1076 15.4073 16.3664 14.4947 16.4843L14.6229 17.4761ZM18.8333 11.9954C18.8304 10.8968 18.4675 9.82973 17.8034 9.02899L17.0337 9.66738C17.5363 10.2734 17.831 11.11 17.8333 11.998L18.8333 11.9954ZM17.8943 9.50189C18.0494 9.02169 18.1232 8.51147 18.1127 8L17.1129 8.02062C17.1212 8.42317 17.0629 8.8224 16.9427 9.19449L17.8943 9.50189ZM18.1127 8C18.1021 7.48854 18.0074 6.98282 17.8323 6.51154L16.8949 6.85975C17.03 7.22331 17.1046 7.61806 17.1129 8.02062L18.1127 8ZM17.3636 6.68565C17.5261 6.21277 17.5255 6.21258 17.525 6.2124C17.5248 6.21234 17.5243 6.21215 17.5239 6.21203C17.5232 6.21178 17.5224 6.21153 17.5216 6.21127C17.5201 6.21076 17.5186 6.21025 17.5169 6.20972C17.5137 6.20868 17.5103 6.2076 17.5066 6.2065C17.4994 6.20429 17.4913 6.202 17.4825 6.19968C17.4648 6.19503 17.4441 6.19027 17.4203 6.18587C17.3726 6.17704 17.3129 6.16974 17.2411 6.16743C17.097 6.16281 16.9076 6.17841 16.6708 6.23922C16.199 6.36041 15.5418 6.66029 14.6715 7.33612L15.2848 8.12594C16.0794 7.50886 16.6149 7.28605 16.9196 7.20778C17.0711 7.16886 17.1659 7.16553 17.209 7.16692C17.2307 7.16761 17.2404 7.16954 17.2385 7.16921C17.2377 7.16905 17.2341 7.16835 17.2278 7.16669C17.2246 7.16586 17.2208 7.1648 17.2164 7.16346C17.2142 7.16279 17.2118 7.16204 17.2093 7.16122C17.208 7.16081 17.2067 7.16038 17.2054 7.15993C17.2047 7.15971 17.204 7.15948 17.2033 7.15925C17.203 7.15913 17.2024 7.15895 17.2023 7.15889C17.2017 7.15871 17.2012 7.15853 17.3636 6.68565ZM15.1277 7.25391C13.6304 6.78469 12.0559 6.78469 10.5586 7.25391L10.8577 8.20815C12.1603 7.79994 13.526 7.79994 14.8286 8.20815L15.1277 7.25391ZM11.0147 7.33606C10.1442 6.66028 9.48692 6.36042 9.01522 6.23923C8.77852 6.17841 8.58918 6.1628 8.44511 6.16743C8.37329 6.16974 8.31362 6.17705 8.26589 6.18588C8.24207 6.19029 8.22134 6.19505 8.20368 6.1997C8.19486 6.20203 8.18681 6.20433 8.17954 6.20653C8.17591 6.20764 8.17247 6.20872 8.16922 6.20977C8.1676 6.21029 8.16603 6.21081 8.1645 6.21132C8.16374 6.21157 8.16299 6.21182 8.16225 6.21207C8.16189 6.2122 8.16134 6.21238 8.16116 6.21245C8.16062 6.21263 8.16008 6.21282 8.32265 6.68565C8.48523 7.15848 8.48469 7.15866 8.48416 7.15884C8.48399 7.1589 8.48346 7.15908 8.48312 7.1592C8.48242 7.15943 8.48174 7.15966 8.48106 7.15989C8.47971 7.16034 8.47841 7.16077 8.47714 7.16118C8.4746 7.162 8.47222 7.16275 8.46999 7.16342C8.46555 7.16477 8.46175 7.16583 8.45861 7.16666C8.45231 7.16832 8.44867 7.16903 8.44779 7.1692C8.44593 7.16954 8.45552 7.16761 8.47721 7.16692C8.52018 7.16554 8.61491 7.16885 8.76638 7.20777C9.07104 7.28604 9.60654 7.50887 10.4015 8.126L11.0147 7.33606ZM7.85394 6.51154C7.67888 6.98282 7.58414 7.48854 7.5736 8L8.57338 8.02062C8.58168 7.61806 8.65632 7.22331 8.79136 6.85975L7.85394 6.51154ZM7.5736 8C7.56305 8.51147 7.63684 9.02169 7.79196 9.50189L8.74354 9.19449C8.62334 8.8224 8.56508 8.42317 8.57338 8.02062L7.5736 8ZM7.88292 9.02896C7.55085 9.42927 7.29149 9.89971 7.11612 10.4115L8.06213 10.7357C8.20071 10.3312 8.40257 9.9688 8.65258 9.66742L7.88292 9.02896ZM7.11612 10.4115C6.94074 10.9234 6.85178 11.4695 6.85295 12.0192L7.85295 12.0171C7.85201 11.5758 7.92356 11.1401 8.06213 10.7357L7.11612 10.4115ZM6.85295 12.0182C6.85295 14.0093 7.33713 15.3264 8.16267 16.1792C8.98172 17.0254 10.0587 17.3316 11.0563 17.4751L11.1987 16.4853C10.2808 16.3532 9.47054 16.0926 8.88119 15.4837C8.29833 14.8816 7.85295 13.8554 7.85295 12.0182H6.85295ZM10.7436 16.6598C10.2292 17.2762 10.1021 17.9915 10.148 18.7434L11.1461 18.6824C11.1097 18.0861 11.2146 17.6562 11.5113 17.3006L10.7436 16.6598ZM10.1471 18.7129V23.3333H11.1471V18.7129H10.1471ZM15.5392 23.3333V21.3531H14.5392V23.3333H15.5392ZM15.5392 21.3531V18.6304H14.5392V21.3531H15.5392Z" fill="black"/>
</svg>
