<svg width="10.59" height="15" viewBox="0 0 10.59 15" fill="none" xmlns="http://www.w3.org/2000/svg">
<path d="M4.75943 13.4973C5.01767 13.3995 5.14774 13.1109 5.04995 12.8526C4.95215 12.5944 4.66353 12.4643 4.40528 12.5621L4.75943 13.4973ZM1.1505 10.1767L0.673693 10.0261L0.372685 10.9798L0.849496 11.1303L1.1505 10.1767ZM8.03529 16V16.5H9.03529V16H8.03529ZM8.10294 10.2822L8.03886 9.7863C7.85771 9.80971 7.70374 9.93004 7.63725 10.1002C7.57075 10.2703 7.60232 10.4631 7.71959 10.6032L8.10294 10.2822ZM11.5 5.79703L12 5.79703L12 5.79569L11.5 5.79703ZM10.6767 3.41337L10.2009 3.25967C10.1483 3.42248 10.1826 3.60087 10.2918 3.73256L10.6767 3.41337ZM10.6273 1.01708L11.096 0.842974C11.0438 0.702525 10.9314 0.592873 10.7897 0.544199L10.6273 1.01708ZM8.48032 1.95792L8.3308 2.43504C8.48715 2.48404 8.65759 2.45332 8.787 2.35283L8.48032 1.95792ZM4.63732 1.95792L4.33073 2.35289C4.46013 2.45334 4.63053 2.48403 4.78684 2.43504L4.63732 1.95792ZM2.49038 1.01708L2.32781 0.544247C2.18617 0.592946 2.07383 0.702573 2.02167 0.842974L2.49038 1.01708ZM2.44097 3.41337L2.8258 3.73259C2.93504 3.6009 2.96936 3.42249 2.91676 3.25967L2.44097 3.41337ZM1.61765 5.81634L2.11765 5.81634L2.11765 5.81527L1.61765 5.81634ZM5.01471 10.2822L5.39858 10.6026C5.5147 10.4634 5.54644 10.2723 5.48155 10.1031C5.41666 9.93393 5.26529 9.81308 5.08591 9.78727L5.01471 10.2822ZM4.58235 11.8416H5.08235C5.08235 11.8314 5.08204 11.8212 5.08142 11.8111L4.58235 11.8416ZM4.08235 16V16.5H5.08235V16H4.08235ZM4.40528 12.5621C3.82029 12.7836 3.46611 12.7537 3.23908 12.6636C3.00305 12.5699 2.80855 12.3741 2.61696 12.0739C2.52205 11.9251 2.43512 11.7625 2.34543 11.588C2.25941 11.4206 2.16528 11.2307 2.0696 11.0611C1.89171 10.7457 1.61906 10.3246 1.1505 10.1767L0.849496 11.1303C0.910267 11.1495 1.01916 11.2342 1.19859 11.5523C1.28156 11.6994 1.36002 11.8583 1.45597 12.045C1.54826 12.2246 1.65268 12.4217 1.77395 12.6118C2.01472 12.9891 2.35185 13.3874 2.87028 13.5931C3.3977 13.8023 4.0208 13.777 4.75943 13.4973L4.40528 12.5621ZM9.03529 11.7673C9.03529 11.3926 9.02114 11.0724 8.93971 10.7785C8.85329 10.4665 8.70171 10.2184 8.48629 9.96118L7.71959 10.6032C7.87414 10.7877 7.93874 10.9109 7.976 11.0455C8.01826 11.198 8.03529 11.3995 8.03529 11.7673H9.03529ZM8.16702 10.7781C9.07408 10.6608 10.0587 10.3843 10.8085 9.60404C11.5629 8.81882 12 7.60811 12 5.79703H11C11 7.45674 10.6004 8.37722 10.0874 8.91118C9.56954 9.45011 8.85566 9.68075 8.03886 9.7863L8.16702 10.7781ZM12 5.79569C11.9973 4.79644 11.6673 3.82457 11.0615 3.09417L10.2918 3.73256C10.7361 4.26823 10.9979 5.00969 11 5.79837L12 5.79569ZM11.1525 3.56706C11.2938 3.12948 11.361 2.66473 11.3514 2.19897L10.3516 2.21958C10.359 2.57644 10.3073 2.93019 10.2009 3.25967L11.1525 3.56706ZM11.3514 2.19897C11.3418 1.7332 11.2555 1.27251 11.096 0.842974L10.1586 1.19118C10.2781 1.513 10.3443 1.86272 10.3516 2.21958L11.3514 2.19897ZM10.6273 1.01708C10.7897 0.544199 10.7892 0.544015 10.7886 0.543831C10.7884 0.543768 10.7879 0.543583 10.7875 0.543459C10.7868 0.54321 10.786 0.54296 10.7853 0.542707C10.7838 0.542202 10.7822 0.54169 10.7806 0.541172C10.7774 0.540135 10.774 0.539074 10.7705 0.537994C10.7633 0.535833 10.7555 0.533602 10.747 0.531353C10.7299 0.526853 10.71 0.522299 10.6874 0.518107C10.6419 0.50971 10.5857 0.502865 10.5186 0.500709C10.3838 0.496384 10.2086 0.511038 9.9913 0.566865C9.55832 0.678084 8.96069 0.951827 8.17365 1.56301L8.787 2.35283C9.49837 1.8004 9.97421 1.60372 10.2401 1.53542C10.3722 1.50149 10.4528 1.49911 10.4865 1.50019C10.5035 1.50074 10.5097 1.50221 10.5056 1.50145C10.5036 1.50108 10.4991 1.50017 10.4923 1.49837C10.4888 1.49747 10.4848 1.49634 10.4803 1.49496C10.478 1.49426 10.4755 1.4935 10.473 1.49267C10.4717 1.49225 10.4704 1.49182 10.469 1.49137C10.4683 1.49114 10.4676 1.49091 10.4669 1.49068C10.4666 1.49056 10.4661 1.49038 10.4659 1.49032C10.4654 1.49014 10.4648 1.48996 10.6273 1.01708ZM8.62984 1.4808C7.27255 1.05545 5.8451 1.05545 4.4878 1.4808L4.78684 2.43504C5.94945 2.0707 7.1682 2.0707 8.3308 2.43504L8.62984 1.4808ZM4.94392 1.56295C4.15662 0.951814 3.55901 0.678089 3.12614 0.566872C2.90885 0.511044 2.73371 0.496382 2.59899 0.500709C2.53184 0.502866 2.47564 0.509715 2.4302 0.51812C2.40752 0.522315 2.38765 0.526874 2.37056 0.53138C2.36202 0.533632 2.35419 0.535866 2.34706 0.53803C2.3435 0.539112 2.34011 0.540175 2.3369 0.541214C2.3353 0.541733 2.33374 0.542246 2.33222 0.542752C2.33146 0.543005 2.33072 0.543256 2.32998 0.543505C2.32961 0.54363 2.32907 0.543815 2.32889 0.543877C2.32835 0.544062 2.32781 0.544247 2.49038 1.01708C2.65296 1.48991 2.65242 1.49009 2.65189 1.49027C2.65172 1.49033 2.65119 1.49051 2.65084 1.49063C2.65015 1.49087 2.64946 1.4911 2.64878 1.49132C2.64742 1.49178 2.6461 1.49221 2.64481 1.49263C2.64224 1.49346 2.6398 1.49422 2.63751 1.49492C2.63293 1.49631 2.62892 1.49744 2.62549 1.49834C2.61862 1.50015 2.61413 1.50106 2.6121 1.50144C2.60795 1.50221 2.61407 1.50074 2.63109 1.50019C2.6647 1.49911 2.74523 1.50149 2.8773 1.53542C3.14313 1.60372 3.619 1.80041 4.33073 2.35289L4.94392 1.56295ZM2.02167 0.842974C1.86212 1.27251 1.77585 1.7332 1.76624 2.19897L2.76603 2.21958C2.77339 1.86272 2.83955 1.513 2.95909 1.19118L2.02167 0.842974ZM1.76624 2.19897C1.75664 2.66473 1.82383 3.12948 1.96518 3.56706L2.91676 3.25967C2.81033 2.93019 2.75867 2.57644 2.76603 2.21958L1.76624 2.19897ZM2.05614 3.09414C1.75318 3.45936 1.51688 3.88816 1.3572 4.35418L2.30322 4.67831C2.4261 4.31966 2.6049 3.99889 2.8258 3.73259L2.05614 3.09414ZM1.3572 4.35418C1.19752 4.82024 1.11658 5.31725 1.11765 5.8174L2.11765 5.81527C2.11681 5.42351 2.18034 5.03693 2.30322 4.67831L1.3572 4.35418ZM1.11765 5.81634C1.11765 7.61605 1.55535 8.81596 2.31047 9.59608C3.05911 10.3695 4.04175 10.6473 4.9435 10.7771L5.08591 9.78727C4.26381 9.66899 3.54792 9.43669 3.02899 8.90058C2.51655 8.37117 2.11765 7.46217 2.11765 5.81634H1.11765ZM4.63083 9.9618C4.15698 10.5296 4.04147 11.1876 4.08328 11.8721L5.08142 11.8111C5.04912 11.2822 5.14238 10.9095 5.39858 10.6026L4.63083 9.9618ZM4.08235 11.8416V16H5.08235V11.8416H4.08235ZM9.03529 16V14.2178H8.03529V16H9.03529ZM9.03529 14.2178V11.7673H8.03529V14.2178H9.03529Z" fill="black"/>
</svg>
