<svg width="574" height="503" viewBox="0 0 574 503" fill="none" xmlns="http://www.w3.org/2000/svg">
<path opacity="0.0526316" d="M45.4418 395.598C57.511 411.655 96.0855 438.524 153.83 417.546C226.01 391.323 253.926 321.813 318.348 285.771C365.896 259.17 493.66 219.239 567.127 263.363" stroke="#C32F27"/>
<path opacity="0.105263" d="M33.5373 361.935C43.8619 379.166 79.4164 409.92 139.037 395.093C213.563 376.558 248.592 310.347 316.429 281.237C366.497 259.751 497.735 233.394 566.187 284.956" stroke="#C32F27"/>
<path opacity="0.157895" d="M24.5437 327.819C33.0107 346.035 65.1557 380.337 126 371.823C202.055 361.18 243.813 298.993 314.321 277.133C366.36 260.999 499.635 248.505 562.322 306.939" stroke="#C32F27"/>
<path opacity="0.210526" d="M18.4927 293.556C25.0093 312.556 53.3927 350.031 114.793 347.923C191.544 345.289 239.574 287.807 311.98 273.437C365.422 262.831 499.272 264.336 555.507 329.002" stroke="#C32F27"/>
<path opacity="0.263158" d="M15.3835 259.453C19.8782 279.031 44.1889 319.267 105.474 323.589C182.079 328.992 235.854 276.846 309.366 270.123C363.623 265.161 496.583 280.649 545.751 350.839" stroke="#C32F27"/>
<path opacity="0.315789" d="M15.1832 225.818C17.6069 245.759 37.5786 288.316 98.0757 299.02C173.697 312.401 232.628 266.161 306.44 267.159C360.919 267.896 491.531 297.197 533.093 372.142" stroke="#C32F27"/>
<path opacity="0.368421" d="M17.8269 192.953C18.153 213.037 33.5669 257.448 92.6137 274.418C166.422 295.63 229.864 255.804 303.167 264.511C357.27 270.938 484.104 313.732 517.604 392.611" stroke="#C32F27"/>
<path opacity="0.421053" d="M23.2187 161.149C21.4436 181.158 32.1308 226.937 89.0803 249.986C160.267 278.796 227.524 245.82 299.516 262.142C352.651 274.189 474.317 330.006 499.388 411.955" stroke="#C32F27"/>
<path opacity="0.473684" d="M31.2325 130.689C27.3757 150.403 33.2191 197.048 87.4474 225.924C155.233 262.017 225.568 236.252 295.459 260.01C347.044 277.545 462.209 345.774 478.577 429.895" stroke="#C32F27"/>
<path opacity="0.526316" d="M41.7136 101.84C35.8172 121.042 36.7528 168.043 87.6659 202.429C151.307 245.41 223.951 227.138 290.975 258.072C340.445 280.903 447.847 360.796 455.332 446.166" stroke="#C32F27"/>
<path opacity="0.578947" d="M54.4799 74.8495C46.6087 93.3302 42.6262 140.171 89.6661 179.69C148.466 229.089 222.621 218.51 286.046 256.28C332.857 284.157 431.32 374.839 429.841 460.524" stroke="#C32F27"/>
<path opacity="0.631579" d="M69.3247 49.9478C59.5648 67.5046 50.7079 113.673 93.3593 157.892C146.673 213.166 221.528 210.397 280.657 254.59C324.298 287.207 412.743 387.684 402.315 472.746" stroke="#C32F27"/>
<path opacity="0.684211" d="M86.0183 27.34C74.4767 43.7804 60.8424 88.77 98.638 137.205C145.882 197.75 220.617 202.82 274.802 252.951C314.795 289.952 392.252 399.123 372.991 482.629" stroke="#C32F27"/>
<path opacity="0.736842" d="M104.311 7.20622C91.1139 22.3501 72.8517 65.6681 105.377 117.789C146.034 182.94 219.829 195.794 268.478 251.315C304.384 292.293 370.005 408.963 342.12 489.998" stroke="#C32F27"/>
<path opacity="0.789474" d="M123.935 -10.2986C109.227 3.38293 86.537 44.5547 113.436 99.7897C147.06 168.834 219.108 189.331 261.686 249.633C293.112 294.14 346.179 417.03 309.976 494.706" stroke="#C32F27"/>
<path opacity="0.842105" d="M144.608 -25.0509C128.551 -12.9817 101.681 25.5928 122.66 83.337C148.883 155.517 218.393 183.433 254.434 247.855C281.036 295.404 320.966 423.168 276.843 496.634" stroke="#C32F27"/>
<path opacity="0.894737" d="M166.037 -36.9554C148.807 -26.6308 118.052 8.92371 132.88 68.5444C151.414 143.07 217.625 178.099 246.736 245.936C268.221 296.004 294.578 427.242 243.017 495.694" stroke="#C32F27"/>
<path opacity="0.947368" d="M187.921 -45.949C169.705 -37.482 135.403 -5.33699 143.917 55.507C154.56 131.562 216.747 173.32 238.607 243.828C254.741 295.868 267.236 429.142 208.802 491.829" stroke="#C32F27"/>
<path d="M209.952 -52C190.951 -45.4834 153.476 -17.1001 155.584 44.3006C158.219 121.051 215.7 169.081 230.07 241.488C240.677 294.929 239.171 428.779 174.505 485.015" stroke="#C32F27"/>
</svg>
