<svg width="802" height="778" viewBox="0 0 802 778" fill="none" xmlns="http://www.w3.org/2000/svg">
<path opacity="0.0526316" d="M63.1564 627.011C80.0364 649.468 133.987 687.048 214.748 657.707C315.699 621.032 354.743 523.815 444.844 473.407C511.345 436.202 690.036 380.355 792.786 442.067" stroke="#C32F27"/>
<path opacity="0.105263" d="M46.5067 579.93C60.9468 604.029 110.673 647.042 194.059 626.305C298.291 600.382 347.283 507.779 442.159 467.066C512.184 437.016 695.734 400.153 791.471 472.267" stroke="#C32F27"/>
<path opacity="0.157895" d="M33.9282 532.216C45.7702 557.692 90.7282 605.667 175.825 593.759C282.195 578.874 340.598 491.9 439.21 461.326C511.994 438.761 698.391 421.286 786.065 503.012" stroke="#C32F27"/>
<path opacity="0.210526" d="M25.4653 484.295C34.5794 510.869 74.2764 563.281 160.151 560.333C267.495 556.649 334.67 476.255 435.937 456.157C510.681 441.323 697.883 443.428 776.535 533.87" stroke="#C32F27"/>
<path opacity="0.263158" d="M21.1168 436.599C27.4032 463.98 61.4042 520.255 147.117 526.299C254.258 533.855 329.468 460.924 432.281 451.521C508.166 444.581 694.123 466.243 762.89 564.411" stroke="#C32F27"/>
<path opacity="0.315789" d="M20.8367 389.557C24.2265 417.446 52.1589 476.966 136.77 491.937C242.535 510.651 324.956 445.981 428.189 447.376C504.383 448.406 687.057 489.387 745.186 594.206" stroke="#C32F27"/>
<path opacity="0.368421" d="M24.5341 343.591C24.9902 371.681 46.548 433.795 129.131 457.528C232.36 487.195 321.089 431.495 423.611 443.673C499.28 452.662 676.67 512.513 723.524 622.834" stroke="#C32F27"/>
<path opacity="0.421053" d="M32.0751 299.111C29.5925 327.095 44.5396 391.122 124.189 423.357C223.751 463.652 317.817 417.531 418.505 440.36C492.819 457.209 662.982 535.274 698.047 649.888" stroke="#C32F27"/>
<path opacity="0.473684" d="M43.2832 256.51C37.889 284.081 46.0616 349.32 121.905 389.704C216.71 440.185 315.082 404.15 412.831 437.378C484.978 461.903 646.048 557.327 668.94 674.978" stroke="#C32F27"/>
<path opacity="0.526316" d="M57.942 216.161C49.6954 243.017 51.004 308.753 122.211 356.844C211.22 416.958 312.819 391.403 406.56 434.666C475.748 466.598 625.96 578.337 636.43 697.736" stroke="#C32F27"/>
<path opacity="0.578947" d="M75.7971 178.412C64.7884 204.259 59.2185 269.771 125.009 325.042C207.246 394.131 310.96 379.336 399.665 432.161C465.136 471.15 602.846 597.978 600.778 717.817" stroke="#C32F27"/>
<path opacity="0.631579" d="M96.559 143.584C82.9088 168.139 70.5216 232.71 130.174 294.555C204.739 371.862 309.431 367.989 392.129 429.797C453.166 475.416 576.864 615.943 562.28 734.91" stroke="#C32F27"/>
<path opacity="0.684211" d="M119.907 111.965C103.765 134.959 84.6957 197.881 137.557 265.623C203.633 350.3 308.156 357.391 383.94 427.505C439.874 479.254 548.206 631.942 521.266 748.733" stroke="#C32F27"/>
<path opacity="0.736842" d="M145.491 83.8059C127.033 104.986 101.492 165.571 146.982 238.467C203.845 329.587 307.055 347.565 375.095 425.216C425.313 482.529 517.091 645.704 478.091 759.039" stroke="#C32F27"/>
<path opacity="0.789474" d="M172.937 59.3237C152.367 78.4586 120.632 136.041 158.254 213.293C205.28 309.858 306.046 338.526 365.596 422.864C409.548 485.112 483.767 656.986 433.134 765.624" stroke="#C32F27"/>
<path opacity="0.842105" d="M201.85 38.6911C179.393 55.5711 141.813 109.521 171.154 190.282C207.829 291.234 305.046 330.278 355.454 420.378C392.659 486.879 448.505 665.57 386.794 768.32" stroke="#C32F27"/>
<path opacity="0.894737" d="M231.822 22.0413C207.723 36.4814 164.71 86.208 185.447 169.594C211.369 273.826 303.972 322.817 344.686 417.693C374.736 487.719 411.599 671.269 339.485 767.005" stroke="#C32F27"/>
<path opacity="0.947368" d="M262.428 9.46293C236.952 21.3049 188.976 66.2629 200.884 151.359C215.769 257.73 302.744 316.133 333.317 414.745C355.883 487.528 373.357 673.926 291.632 761.6" stroke="#C32F27"/>
<path d="M293.24 1C266.666 10.1141 214.254 49.8111 217.201 135.686C220.886 243.03 301.28 310.204 321.378 411.472C336.212 486.215 334.107 673.418 243.664 752.069" stroke="#C32F27"/>
</svg>
